<?xml version="1.0" encoding="utf-8"?>
<!-- Svg Vector Icons : http://www.onlinewebfonts.com/icon -->
<!DOCTYPE svg PUBLIC "-//W3C//DTD SVG 1.1//EN" "http://www.w3.org/Graphics/SVG/1.1/DTD/svg11.dtd">
<svg version="1.1" xmlns="http://www.w3.org/2000/svg" xmlns:xlink="http://www.w3.org/1999/xlink" x="0px" y="0px" viewBox="0 0 1000 1000" enable-background="new 0 0 1000 1000" xml:space="preserve">
<metadata> Svg Vector Icons : http://www.onlinewebfonts.com/icon </metadata>
<g><path d="M733.5,789.6c13.7-7,24.6-13.5,33.3-19.8c8.5-6.5,14.4-12.4,17.4-17.9c9.8-17.6,6.8-44.2-8.7-79.3c-15.7-35.3-33.3-58.4-52.7-69.7c-7.4-4.1-16.1-5.4-26.1-3.5c-10.2,2-25.5,8.1-46.2,18.5c23.5,22.4,42.2,47.9,56.2,76.9C720.4,723.6,729.5,755.2,733.5,789.6z M445.6,326c11.8-10.7,21.1-19.4,28.1-26.6c6.8-7.2,11.5-13.3,14.4-18.3c7.2-13.1,2-32.7-15.7-59c-17.4-25.9-38.8-46.4-64.2-61c-14.6-8.5-28.1-11.3-40.5-8.5c-12.4,3-29.6,13.9-51.6,32.4c30.9,18.1,57.5,39.2,79.9,63.4C418.1,272.6,434.7,298.3,445.6,326z M697.3,812.9c5.2-3,8.5-6.3,10.5-10c3.3-5.7,3-17.2-0.2-34.6c-3.5-17.6-9.6-36.6-18.5-57.3c-7.6-17.2-17.9-34-30.7-50.3c-12.6-16.3-21.1-25.9-25.7-28.5c-2.8-1.5-11.3-1.1-25.3,1.3c-14.2,2.6-26.1,1.1-36.2-4.8c-13.1-7.6-28.3-21.3-45.5-41.2c-17.6-20-37.2-45.7-59-77.3c-24.4-36.1-40.7-63.2-48.6-81.4c-7.8-18.1-10.7-33.8-8.3-46.8c0.2-3,1.7-7.8,4.4-13.9c8.3-19.8,7.8-38.5-1.3-56.2c-9.6-16.8-24-34.8-43.1-54.4c-18.7-19.4-36.2-33.5-51.8-42.7c-12.8-7.4-22.6-10.5-29.2-8.9c-6.5,1.3-13.5,8.3-20.7,21.1c-10.9,20-18.9,37.9-23.7,53.6s-6.8,28.7-5.2,39.2c1.5,12.6,9.1,35.9,23.5,69.9c13.9,34,31.4,70.6,52,109.5c37.9,71,83.2,137.6,136.3,199.9c52.9,62.3,96,102.8,129.1,122.2c6.5,3.7,14.2,6.1,22.9,7.6C611.7,829.9,692.1,816.2,697.3,812.9z M500,990C229.8,990,10,770.2,10,500S229.8,10,500,10c270.2,0,490,219.8,490,490S770.2,990,500,990z M500,75.4C265.8,75.4,75.3,265.8,75.3,500c0,234.2,190.5,424.6,424.7,424.6c234.2,0,424.7-190.5,424.7-424.6C924.7,265.8,734.2,75.4,500,75.4z"/></g>
</svg>